# Blender v2.82 (sub 7) OBJ File: 'Bush.blend'
# www.blender.org
mtllib Grass002.mtl
v -1.519280 0.075410 -0.462391
v -0.596787 -0.005244 0.947769
v -1.371103 1.249657 -0.492164
v -0.448611 1.169004 0.917996
v -1.480942 0.052889 0.745998
v 1.275947 0.017277 0.395140
v -1.462875 1.474177 0.743699
v 1.294014 1.438565 0.392841
v -0.758168 0.135795 0.270890
v 0.553173 -0.028157 -0.214572
v -0.612483 1.740497 0.122468
v 0.698858 1.576545 -0.362994
v 1.297204 0.083565 0.882334
v 0.052890 0.024073 -0.488768
v 1.158053 1.241925 0.958355
v -0.086260 1.182433 -0.412747
v -0.352142 0.048534 1.035502
v -0.041711 0.059104 -0.709386
v -0.481003 1.206958 1.019595
v -0.170572 1.217529 -0.725294
v -0.112076 0.013633 0.733639
v 0.699742 0.094005 1.486580
v -0.141252 1.137738 0.645104
v 0.670566 1.218110 1.398045
v 0.205745 0.004426 -1.498626
v -0.879996 0.103212 -0.907116
v 0.356089 1.199211 -1.422198
v -0.729652 1.297996 -0.830688
v 0.727688 0.072254 0.183601
v 0.928658 0.035384 -1.017827
v 0.840868 1.257559 0.166158
v 1.041838 1.220688 -1.035271
v -1.101559 0.047456 -0.159253
v 0.887571 0.060182 -0.931074
v -1.165778 1.442061 -0.301762
v 0.823352 1.454787 -1.073583
vt 0.146433 0.000000
vt 0.935897 0.000000
vt 0.935897 0.660256
vt 0.146433 0.660256
vt 0.146433 0.000000
vt 0.935897 0.000000
vt 0.935897 0.660256
vt 0.146433 0.660256
vt 0.146433 0.000000
vt 0.935897 0.000000
vt 0.935897 0.660256
vt 0.146433 0.660256
vt 0.146433 0.000000
vt 0.935897 0.000000
vt 0.935897 0.660256
vt 0.146433 0.660256
vt 0.146433 0.000000
vt 0.935897 0.000000
vt 0.935897 0.660256
vt 0.146433 0.660256
vt 0.146433 0.000000
vt 0.935897 0.000000
vt 0.935897 0.660256
vt 0.146433 0.660256
vt 0.146433 0.000000
vt 0.935897 0.000000
vt 0.935897 0.660256
vt 0.146433 0.660256
vt 0.146433 0.000000
vt 0.935897 0.000000
vt 0.935897 0.660256
vt 0.146433 0.660256
vt 0.146433 0.000000
vt 0.935897 0.000000
vt 0.935897 0.660256
vt 0.146433 0.660256
vn -0.8278 0.1184 0.5483
vn 0.1262 -0.0000 0.9920
vn 0.3526 0.0544 0.9342
vn 0.7312 0.1318 -0.6693
vn 0.9783 0.1112 0.1747
vn -0.6816 0.0399 0.7306
vn -0.4672 0.1149 -0.8767
vn 0.9817 -0.0913 0.1670
vn 0.3589 0.1112 0.9267
usemtl Material.002
s off
f 1/1/1 2/2/1 4/3/1 3/4/1
f 5/5/2 6/6/2 8/7/2 7/8/2
f 9/9/3 10/10/3 12/11/3 11/12/3
f 13/13/4 14/14/4 16/15/4 15/16/4
f 17/17/5 18/18/5 20/19/5 19/20/5
f 21/21/6 22/22/6 24/23/6 23/24/6
f 25/25/7 26/26/7 28/27/7 27/28/7
f 29/29/8 30/30/8 32/31/8 31/32/8
f 33/33/9 34/34/9 36/35/9 35/36/9
