# Blender v2.82 (sub 7) OBJ File: ''
# www.blender.org
mtllib SM_Plank.mtl
o Cube.002_Cube.003
v -1.488000 0.012000 0.150000
v -1.500000 0.012000 0.138000
v -1.488000 0.000000 0.138000
v -1.488000 0.088000 0.150000
v -1.488000 0.100000 0.138000
v -1.500000 0.088000 0.138000
v -1.488000 0.012000 -0.150000
v -1.488000 0.000000 -0.138000
v -1.500000 0.012000 -0.138000
v -1.488000 0.088000 -0.150000
v -1.500000 0.088000 -0.138000
v -1.488000 0.100000 -0.138000
v 1.488000 0.012000 0.150000
v 1.488000 0.000000 0.138000
v 1.500000 0.012000 0.138000
v 1.488000 0.088000 0.150000
v 1.500000 0.088000 0.138000
v 1.488000 0.100000 0.138000
v 1.488000 0.012000 -0.150000
v 1.500000 0.012000 -0.138000
v 1.488000 0.000000 -0.138000
v 1.488000 0.088000 -0.150000
v 1.488000 0.100000 -0.138000
v 1.500000 0.088000 -0.138000
vt 0.595000 0.251000
vt 0.595000 0.499000
vt 0.405000 0.499000
vt 0.405000 0.251000
vt 0.595000 0.740000
vt 0.405000 0.740000
vt 0.405000 0.510000
vt 0.595000 0.510000
vt 0.874000 0.510000
vt 0.874000 0.740000
vt 0.626000 0.740000
vt 0.626000 0.510000
vt 0.374000 0.510000
vt 0.374000 0.740000
vt 0.126000 0.740000
vt 0.126000 0.510000
vt 0.595000 0.010000
vt 0.595000 0.240000
vt 0.405000 0.240000
vt 0.405000 0.010000
vt 0.405000 0.999000
vt 0.405000 1.000000
vt 0.375000 0.999000
vt 0.595000 0.999000
vt 0.625000 0.999000
vt 0.595000 1.000000
vt 0.375000 0.251000
vt 0.405000 0.250000
vt 0.595000 0.250000
vt 0.625000 0.251000
vt 0.405000 0.751000
vt 0.375000 0.751000
vt 0.405000 0.750000
vt 0.595000 0.751000
vt 0.595000 0.750000
vt 0.625000 0.751000
vt 0.405000 0.500000
vt 0.375000 0.499000
vt 0.625000 0.499000
vt 0.595000 0.500000
vt 0.875000 0.510000
vt 0.875000 0.740000
vt 0.125000 0.740000
vt 0.125000 0.510000
vt 0.126000 0.500000
vt 0.374000 0.500000
vt 0.374000 0.750000
vt 0.126000 0.750000
vt 0.626000 0.500000
vt 0.874000 0.500000
vt 0.874000 0.750000
vt 0.626000 0.750000
vn 0.0000 0.0000 -1.0000
vn 1.0000 0.0000 0.0000
vn 0.0000 1.0000 0.0000
vn 0.0000 -1.0000 0.0000
vn -1.0000 0.0000 0.0000
vn 0.0000 -0.0000 1.0000
usemtl None
s 1
f 10/1/1 22/2/1 19/3/1 7/4/1
f 17/5/2 15/6/2 20/7/2 24/8/2
f 12/9/3 5/10/3 18/11/3 23/12/3
f 21/13/4 14/14/4 3/15/4 8/16/4
f 6/17/5 11/18/5 9/19/5 2/20/5
f 1/21/6 2/22/5 3/23/4
f 4/24/6 5/25/3 6/26/5
f 7/4/1 8/27/4 9/28/5
f 10/1/1 11/29/5 12/30/3
f 13/31/6 14/32/4 15/33/2
f 16/34/6 17/35/2 18/36/3
f 19/3/1 20/37/2 21/38/4
f 22/2/1 23/39/3 24/40/2
f 1/21/6 4/24/6 6/26/5 2/22/5
f 10/1/1 7/4/1 9/19/5 11/18/5
f 5/10/3 12/9/3 11/41/5 6/42/5
f 8/16/4 3/15/4 2/43/5 9/44/5
f 24/8/2 20/7/2 19/3/1 22/2/1
f 16/34/6 13/31/6 15/6/2 17/5/2
f 14/14/4 21/13/4 20/7/2 15/6/2
f 23/12/3 18/11/3 17/5/2 24/8/2
f 21/13/4 8/16/4 7/45/1 19/46/1
f 3/15/4 14/14/4 13/47/6 1/48/6
f 12/9/3 23/12/3 22/49/1 10/50/1
f 18/11/3 5/10/3 4/51/6 16/52/6
f 13/31/6 16/34/6 4/24/6 1/21/6
