# Blender v2.82 (sub 7) OBJ File: ''
# www.blender.org
mtllib SM_PlankBroken002.mtl
o Cube.001_Cube.002
v 0.768750 0.012000 0.156750
v 0.756750 0.012000 0.168750
v 0.756750 0.000000 0.156750
v 0.756750 0.100000 0.156750
v 0.756750 0.088000 0.168750
v 0.768750 0.088000 0.156750
v 0.756750 0.012000 -0.131250
v 0.768750 0.012000 -0.119250
v 0.756750 0.000000 -0.119250
v 0.756750 0.100000 -0.119250
v 0.768750 0.088000 -0.119250
v 0.756750 0.088000 -0.131250
v -0.729489 0.000000 -0.119250
v -0.731250 0.012000 -0.131250
v -0.729489 0.100000 -0.119250
v -0.731250 0.088000 -0.131250
v -0.719250 0.012000 0.168750
v -0.724594 0.012000 0.158765
v -0.708828 0.000000 0.156750
v -0.719250 0.088000 0.168750
v -0.708828 0.100000 0.156750
v -0.724594 0.088000 0.158765
v 0.756750 0.000000 0.018750
v 0.768750 0.012000 0.018750
v 0.768750 0.088000 0.018750
v 0.756750 0.100000 0.018750
v -0.637906 0.088000 0.028735
v -0.627922 0.100000 0.035391
v -0.640469 0.100000 0.004502
v -0.642984 0.088000 0.016236
v -0.637906 0.012000 0.028735
v -0.642984 0.012000 0.016236
v -0.640469 0.000000 0.004502
v -0.627922 0.000000 0.035391
v 0.768750 0.012000 -0.056250
v 0.756750 0.000000 -0.056250
v 0.768750 0.088000 -0.056250
v 0.756750 0.100000 -0.056250
v -0.969516 0.088000 -0.053736
v -0.933026 0.100000 -0.058189
v -0.969756 0.088000 -0.059698
v -0.969516 0.012000 -0.053736
v -0.969756 0.012000 -0.059698
v -0.933026 0.000000 -0.058189
vt 0.625953 0.510000
vt 0.746954 0.510000
vt 0.747016 0.560884
vt 0.625857 0.562500
vt 0.626071 0.625000
vt 0.748765 0.638868
vt 0.748788 0.740000
vt 0.626021 0.740000
vt 0.405000 0.625000
vt 0.595000 0.625000
vt 0.595000 0.740000
vt 0.405000 0.740000
vt 0.405000 0.510000
vt 0.595000 0.510000
vt 0.595000 0.562500
vt 0.405000 0.562500
vt 0.251235 0.638868
vt 0.248487 0.613127
vt 0.373929 0.625000
vt 0.373979 0.740000
vt 0.251212 0.740000
vt 0.690000 0.622905
vt 0.690000 0.564595
vt 0.310000 0.564595
vt 0.310000 0.622905
vt 0.745911 0.560884
vt 0.745861 0.613127
vt 0.755072 0.638867
vt 0.253046 0.510000
vt 0.374047 0.510000
vt 0.374143 0.562500
vt 0.252984 0.560884
vt 0.405000 0.375000
vt 0.595000 0.375000
vt 0.595000 0.499000
vt 0.405000 0.499000
vt 0.310000 0.500000
vt 0.310000 0.559626
vt 0.690000 0.559627
vt 0.690000 0.500000
vt 0.254089 0.560884
vt 0.254139 0.613127
vt 0.598969 0.858359
vt 0.686031 0.641641
vt 0.313969 0.641641
vt 0.401031 0.858359
vt 0.405000 0.750000
vt 0.375000 0.740000
vt 0.626000 0.750000
vt 0.625000 0.740000
vt 0.405000 0.500000
vt 0.375000 0.499000
vt 0.625000 0.510000
vt 0.626000 0.500000
vt 0.405000 0.874000
vt 0.405000 0.875000
vt 0.375000 0.873131
vt 0.595000 0.874000
vt 0.625000 0.873131
vt 0.595000 0.875000
vt 0.741679 0.641641
vt 0.750000 0.625000
vt 0.690000 0.625000
vt 0.310000 0.625000
vt 0.250000 0.625000
vt 0.258321 0.641641
vt 0.750000 0.500000
vt 0.595000 0.751000
vt 0.405000 0.751000
vt 0.374000 0.750000
vt 0.251000 0.750000
vt 0.250000 0.500000
vt 0.374000 0.500000
vt 0.749000 0.750000
vt 0.640547 0.843906
vt 0.250000 0.741679
vt 0.250000 0.633321
vn 0.0000 1.0000 -0.0000
vn 1.0000 0.0000 0.0000
vn 0.0000 -1.0000 0.0000
vn -0.2095 0.0000 0.9778
vn -0.1452 -0.0000 -0.9894
vn 0.0000 0.0000 -1.0000
vn -0.2873 -0.0000 -0.9578
vn -0.8321 0.0000 -0.5547
vn 0.0000 0.0000 1.0000
vn -0.8321 -0.0001 -0.5547
vn -0.2095 -0.0001 0.9778
vn -0.2096 -0.0000 0.9778
vn -0.2874 -0.0000 -0.9578
vn -0.1452 -0.0104 -0.9893
vn -0.1452 0.0104 -0.9894
vn -0.2095 0.0004 0.9778
usemtl None
s 1
f 10/1/1 15/2/1 40/3/1 38/4/1
f 26/5/1 28/6/1 21/7/1 4/8/1
f 24/9/2 25/10/2 6/11/2 1/12/2
f 8/13/2 11/14/2 37/15/2 35/16/2
f 34/17/3 33/18/3 23/19/3 3/20/3 19/21/3
f 30/22/4 39/23/4 42/24/4 32/25/4
f 35/16/2 37/15/2 25/10/2 24/9/2
f 38/4/1 40/26/1 29/27/1 28/28/1 26/5/1
f 13/29/3 9/30/3 36/31/3 44/32/3
f 14/33/5 16/34/5 12/35/6 7/36/6
f 14/37/5 43/38/7 41/39/7 16/40/5
f 44/41/3 36/31/3 23/19/3 33/42/3
f 22/43/8 27/44/8 31/45/8 18/46/8
f 1/12/2 2/47/9 3/48/3
f 4/8/1 5/49/9 6/50/2
f 7/36/6 8/51/2 9/52/3
f 10/1/1 11/53/2 12/54/6
f 17/55/9 18/56/8 19/57/3
f 20/58/9 21/59/1 22/60/8
f 27/44/10 28/61/1 29/62/1 30/63/11
f 31/45/8 32/64/4 33/65/3 34/66/3
f 39/23/12 40/3/1 41/39/13
f 42/24/12 43/38/13 44/41/3
f 15/2/1 10/1/1 12/54/6 16/67/14
f 11/14/2 8/13/2 7/36/6 12/35/6
f 36/31/3 9/30/3 8/13/2 35/16/2
f 26/5/1 4/8/1 6/11/2 25/10/2
f 5/68/9 2/69/9 1/12/2 6/11/2
f 19/21/3 3/20/3 2/70/9 17/71/9
f 9/30/3 13/29/3 14/72/15 7/73/6
f 4/8/1 21/7/1 20/74/9 5/49/9
f 27/44/10 22/43/8 21/75/1 28/61/1
f 34/17/3 19/21/3 18/76/8 31/77/8
f 22/43/8 18/46/8 17/55/9 20/58/9
f 3/20/3 23/19/3 24/9/2 1/12/2
f 38/4/1 26/5/1 25/10/2 37/15/2
f 39/23/12 30/22/11 29/27/1 40/26/1
f 44/41/3 33/42/3 32/25/4 42/24/12
f 23/19/3 36/31/3 35/16/2 24/9/2
f 10/1/1 38/4/1 37/15/2 11/14/2
f 16/40/14 41/39/13 40/3/1 15/2/1
f 13/29/3 44/32/3 43/38/13 14/37/15
f 30/22/11 32/25/4 31/45/8 27/44/10
f 41/39/13 43/38/13 42/24/4 39/23/16
f 2/69/9 5/68/9 20/58/9 17/55/9
